<svg width="48" height="48" viewBox="0 0 48 48" fill="none" xmlns="http://www.w3.org/2000/svg">
<path d="M13 38.739C11.9 38.739 10.9583 38.3474 10.175 37.564C9.39167 36.7807 9 35.839 9 34.739V7.78902C9 6.55569 9.575 5.70569 10.725 5.23902C11.875 4.77236 12.9 4.98902 13.8 5.88902L16.05 8.13902L13.95 10.239L15.3 11.589L17.4 9.48902L23.25 15.339L21.15 17.439L22.5 18.789L24.6 16.689L30.5 22.589L28.4 24.689L29.75 26.039L31.85 23.939L37.7 29.789L35.6 31.889L36.95 33.239L39.05 31.139L41.3 33.389C42.3 34.389 42.55 35.5307 42.05 36.814C41.55 38.0974 40.6333 38.739 39.3 38.739H13ZM13 34.739H36.15L13 11.589V34.739Z" fill="white"/>
</svg>
