<svg width="56" height="56" viewBox="0 0 56 56" fill="none" xmlns="http://www.w3.org/2000/svg">
<path d="M16.334 16.3337C16.334 13.7563 18.4233 11.667 21.0007 11.667H35.0007C37.578 11.667 39.6673 13.7563 39.6673 16.3337V18.667C39.6673 21.2443 37.578 23.3337 35.0007 23.3337H21.0007C18.4233 23.3337 16.334 21.2443 16.334 18.667V16.3337ZM21.0007 15.167C20.3563 15.167 19.834 15.6893 19.834 16.3337V18.667C19.834 19.3113 20.3563 19.8337 21.0007 19.8337H35.0007C35.645 19.8337 36.1673 19.3113 36.1673 18.667V16.3337C36.1673 15.6893 35.645 15.167 35.0007 15.167H21.0007ZM19.2507 33.8337C20.8615 33.8337 22.1673 32.5278 22.1673 30.917C22.1673 29.3062 20.8615 28.0003 19.2507 28.0003C17.6398 28.0003 16.334 29.3062 16.334 30.917C16.334 32.5278 17.6398 33.8337 19.2507 33.8337ZM22.1673 40.2503C22.1673 41.8612 20.8615 43.167 19.2507 43.167C17.6398 43.167 16.334 41.8612 16.334 40.2503C16.334 38.6395 17.6398 37.3337 19.2507 37.3337C20.8615 37.3337 22.1673 38.6395 22.1673 40.2503ZM36.7507 33.8337C38.3615 33.8337 39.6673 32.5278 39.6673 30.917C39.6673 29.3062 38.3615 28.0003 36.7507 28.0003C35.1398 28.0003 33.834 29.3062 33.834 30.917C33.834 32.5278 35.1398 33.8337 36.7507 33.8337ZM39.6673 40.2503C39.6673 41.8612 38.3615 43.167 36.7507 43.167C35.1398 43.167 33.834 41.8612 33.834 40.2503C33.834 38.6395 35.1398 37.3337 36.7507 37.3337C38.3615 37.3337 39.6673 38.6395 39.6673 40.2503ZM28.0007 33.8337C29.6115 33.8337 30.9173 32.5278 30.9173 30.917C30.9173 29.3062 29.6115 28.0003 28.0007 28.0003C26.3898 28.0003 25.084 29.3062 25.084 30.917C25.084 32.5278 26.3898 33.8337 28.0007 33.8337ZM30.9173 40.2503C30.9173 41.8612 29.6115 43.167 28.0007 43.167C26.3898 43.167 25.084 41.8612 25.084 40.2503C25.084 38.6395 26.3898 37.3337 28.0007 37.3337C29.6115 37.3337 30.9173 38.6395 30.9173 40.2503ZM16.9173 4.66699C12.7292 4.66699 9.33398 8.06217 9.33398 12.2503L9.33398 43.7503C9.33398 47.9385 12.7292 51.3337 16.9173 51.3337H39.084C43.2721 51.3337 46.6673 47.9385 46.6673 43.7503V12.2503C46.6673 8.06217 43.2721 4.66699 39.084 4.66699L16.9173 4.66699ZM12.834 12.2503C12.834 9.99516 14.6622 8.16699 16.9173 8.16699H39.084C41.3391 8.16699 43.1673 9.99516 43.1673 12.2503V43.7503C43.1673 46.0055 41.3391 47.8337 39.084 47.8337H16.9173C14.6622 47.8337 12.834 46.0055 12.834 43.7503V12.2503Z" fill="white"/>
</svg>
