<svg width="24" height="24" viewBox="0 0 24 24" fill="none" xmlns="http://www.w3.org/2000/svg">
<path d="M12.625 12.6253L22.4298 12.6252C22.775 12.6252 23.0548 12.3454 23.0548 12.0002C23.0548 11.6551 22.775 11.3752 22.4298 11.3752L12.625 11.3752L12.625 1.57044C12.625 1.22524 12.3452 0.945401 12 0.945423C11.6548 0.945446 11.375 1.22526 11.375 1.57044L11.375 11.3752L1.57018 11.3752C1.22498 11.3752 0.945142 11.6551 0.945164 12.0003C0.945164 12.1728 1.01515 12.3291 1.12826 12.4422C1.24137 12.5553 1.3976 12.6253 1.5702 12.6253L11.3749 12.6253L11.3749 22.43C11.3749 22.6026 11.4449 22.7589 11.558 22.872C11.6711 22.9851 11.8274 23.055 12 23.0551C12.3452 23.0551 12.625 22.7752 12.625 22.4301L12.625 12.6253Z" fill="#DD1D1D"/>
</svg>
