<svg width="48" height="48" viewBox="0 0 48 48" fill="none" xmlns="http://www.w3.org/2000/svg">
<path d="M37.5504 18.2001L29.8004 10.4501L33.3004 6.9501C33.8671 6.38343 34.5671 6.1001 35.4004 6.1001C36.2337 6.1001 36.9337 6.38343 37.5004 6.9501L41.0504 10.5001C41.6171 11.0668 41.9004 11.7668 41.9004 12.6001C41.9004 13.4334 41.6171 14.1334 41.0504 14.7001L37.5504 18.2001ZM6.00039 42.0001V34.2001L15.7004 24.5001L4.65039 13.4001L13.3504 4.6001L24.5004 15.7501L29.8004 10.4501L37.5504 18.2001L32.2504 23.5001L43.4004 34.6501L34.6504 43.3001L23.5504 32.2501L13.8004 42.0001H6.00039ZM17.8504 22.3501L22.3504 17.8501L18.7004 14.2001L16.3004 16.6001L14.2004 14.5001L16.6004 12.1001L13.4004 8.9001L8.90039 13.4001L17.8504 22.3501ZM34.5504 39.1001L39.0504 34.6001L35.8504 31.4001L33.4504 33.8001L31.3504 31.7001L33.7504 29.3001L30.1004 25.6501L25.6004 30.1501L34.5504 39.1001ZM9.00039 39.0001H12.5004L33.2504 18.2501L29.7504 14.7501L9.00039 35.5001V39.0001Z" fill="white"/>
</svg>
