<svg width="20" height="18" viewBox="0 0 20 18" fill="none" xmlns="http://www.w3.org/2000/svg">
<path fill-rule="evenodd" clip-rule="evenodd" d="M11.9027 0.156443L19.8169 8.53296L19.8179 8.53401L19.8274 8.54412C20.0573 8.78808 20.0578 9.2114 19.8274 9.456L19.8183 9.46565L19.8174 9.46662L11.9028 17.8436C11.7052 18.0527 11.4121 18.0522 11.215 17.8416C10.9851 17.5958 10.9863 17.1747 11.2169 16.9306L18.1307 9.61291H0.516543C0.288381 9.61291 0 9.39746 0 9.00001C0 8.60256 0.288382 8.3871 0.516543 8.3871H18.1308L11.2168 1.06935C10.9862 0.825229 10.985 0.404166 11.215 0.158436C11.4121 -0.0522866 11.7051 -0.0526697 11.9027 0.156443Z" fill="black"/>
</svg>
