<svg width="41" height="41" viewBox="0 0 41 41" fill="none" xmlns="http://www.w3.org/2000/svg">
<path d="M24.8214 3.66504C25.9582 3.66504 27.0148 4.25118 27.6166 5.21573L29.8438 8.78558H33.3126C35.9409 8.78558 38.0716 10.9162 38.0716 13.5445V31.8481C38.0716 34.4764 35.9409 36.607 33.3126 36.607H7.68764C5.05936 36.607 2.92871 34.4764 2.92871 31.8481V13.5445C2.92871 10.9162 5.05936 8.78558 7.68764 8.78558H11.4487L13.4732 5.30366C14.063 4.2892 15.1479 3.66504 16.3214 3.66504H24.8214ZM24.8214 5.86147H16.3214C15.9861 5.86147 15.6725 6.01432 15.4659 6.27094L15.372 6.40767L13.0299 10.4358C12.8333 10.774 12.4717 10.982 12.0805 10.982H7.68764C6.27241 10.982 5.12514 12.1293 5.12514 13.5445V31.8481C5.12514 33.2633 6.27241 34.4106 7.68764 34.4106H33.3126C34.7279 34.4106 35.8751 33.2633 35.8751 31.8481V13.5445C35.8751 12.1293 34.7279 10.982 33.3126 10.982H29.2346C28.8556 10.982 28.5034 10.7866 28.3028 10.4651L25.7531 6.37836C25.5525 6.05685 25.2003 5.86147 24.8214 5.86147ZM20.5001 13.912C24.948 13.912 28.5537 17.5177 28.5537 21.9656C28.5537 26.4135 24.948 30.0192 20.5001 30.0192C16.0523 30.0192 12.4466 26.4135 12.4466 21.9656C12.4466 17.5177 16.0523 13.912 20.5001 13.912ZM20.5001 16.1085C17.2653 16.1085 14.643 18.7308 14.643 21.9656C14.643 25.2004 17.2653 27.8227 20.5001 27.8227C23.735 27.8227 26.3573 25.2004 26.3573 21.9656C26.3573 18.7308 23.735 16.1085 20.5001 16.1085Z" fill="#C5C5C5"/>
</svg>
