<svg width="56" height="56" viewBox="0 0 56 56" fill="none" xmlns="http://www.w3.org/2000/svg">
<path d="M28.0007 46.7253C33.1729 42.0198 36.9937 37.7517 39.4632 33.9212C41.9326 30.0906 43.1673 26.717 43.1673 23.8003C43.1673 19.2196 41.7033 15.4689 38.7753 12.5481C35.8473 9.62737 32.2558 8.16699 28.0007 8.16699C23.7455 8.16699 20.154 9.62737 17.226 12.5481C14.298 15.4689 12.834 19.2196 12.834 23.8003C12.834 26.717 14.0979 30.0906 16.6257 33.9212C19.1534 37.7517 22.9451 42.0198 28.0007 46.7253ZM28.0007 51.3337C21.7395 46.0059 17.0632 41.0573 13.9715 36.4878C10.8798 31.9184 9.33398 27.6892 9.33398 23.8003C9.33398 17.967 11.2104 13.3198 14.9632 9.85866C18.7159 6.39755 23.0618 4.66699 28.0007 4.66699C32.9395 4.66699 37.2854 6.39755 41.0382 9.85866C44.7909 13.3198 46.6673 17.967 46.6673 23.8003C46.6673 27.6892 45.1215 31.9184 42.0298 36.4878C38.9382 41.0573 34.2618 46.0059 28.0007 51.3337ZM21.584 30.3337H25.084V23.3337H30.9173V30.3337H34.4173V19.542L28.0007 15.2837L21.584 19.542V30.3337Z" fill="white"/>
</svg>
