<?xml version="1.0" encoding="UTF-8"?>
<!DOCTYPE svg PUBLIC "-//W3C//DTD SVG 1.1//EN" "http://www.w3.org/Graphics/SVG/1.1/DTD/svg11.dtd">
<!-- Creator: CorelDRAW X7 -->
<svg xmlns="http://www.w3.org/2000/svg" xml:space="preserve" width="156.223mm" height="32.7135mm" version="1.1" style="shape-rendering:geometricPrecision; text-rendering:geometricPrecision; image-rendering:optimizeQuality; fill-rule:evenodd; clip-rule:evenodd"
viewBox="0 0 15687 3285"
 xmlns:xlink="http://www.w3.org/1999/xlink">
 <defs>
  <style type="text/css">
   <![CDATA[
    .fil0 {fill:#4B4A55;fill-rule:nonzero}
    .fil1 {fill:#AF052D;fill-rule:nonzero}
   ]]>
  </style>
 </defs>
 <g id="Слой_x0020_1">
  <metadata id="CorelCorpID_0Corel-Layer"/>
  <g id="_2045517072704">
   <path class="fil0" d="M170 25l1357 0c295,0 491,36 587,108 119,91 179,282 179,573 0,291 -59,480 -177,570 -97,74 -294,111 -589,111l-802 0 0 440 -555 0 0 -1802 0 0zm555 895l802 0c67,0 118,-14 151,-43 40,-33 61,-90 61,-171 0,-81 -19,-137 -56,-168 -37,-30 -89,-46 -156,-46l-802 0 0 428 0 0zm1946 907l0 -1802 1942 0 0 436 -1387 0 0 250 1323 0 0 433 -1323 0 0 248 1387 0 0 435 -1942 0 0 0zm3257 -1096l515 0c110,0 189,-8 235,-27 46,-17 69,-52 69,-107 0,-52 -21,-87 -64,-104 -43,-18 -123,-27 -240,-27 -394,0 -622,11 -686,32 -64,21 -96,95 -96,220l-555 0c0,-327 59,-529 177,-605 117,-75 426,-113 928,-113 314,0 528,8 640,23 161,22 277,69 347,142 69,73 104,192 104,354 0,93 -9,164 -28,214 -30,79 -87,144 -171,194 89,42 145,88 166,138 22,49 33,140 33,271 0,227 -82,373 -247,439 -131,51 -412,78 -844,78 -518,0 -832,-38 -941,-115 -109,-77 -164,-282 -164,-616l555 0c0,131 33,207 101,230 67,23 294,35 681,35 112,0 191,-9 237,-27 44,-17 67,-53 67,-107 0,-53 -23,-87 -69,-104 -46,-18 -125,-27 -235,-27l-515 0 0 -391 0 0z"/>
   <path class="fil1" d="M8497 25l945 0 898 1802 -648 0 -172 -302 -1099 0 -171 302 -648 0 895 -1802zm517 404l-88 0 -298 630 683 0 -297 -630zm3942 -404l0 1802 -554 0 0 -1335 -986 0c0,520 -45,879 -133,1074 -81,174 -222,261 -421,261l-262 0 0 -466c129,0 205,-57 228,-172 23,-115 34,-503 34,-1164l2094 0 0 0zm512 1802l0 -1802 555 0 0 441 802 0c295,0 491,36 586,109 120,91 180,281 180,572 0,292 -59,484 -177,572 -96,72 -292,108 -589,108l-1357 0 0 0zm555 -894l0 428 802 0c67,0 118,-14 151,-43 40,-33 61,-90 61,-171 0,-83 -21,-141 -61,-174 -33,-26 -83,-40 -151,-40l-802 0z"/>
  </g>
  <path class="fil0" d="M0 2691l323 0 155 330c1,2 2,15 5,37 3,22 5,33 9,33 2,0 5,-11 7,-33 2,-21 5,-34 6,-37l154 -330 308 0 0 586 -181 0 0 -410c0,-7 2,-15 4,-25 3,-11 5,-18 5,-22 0,-3 -2,-5 -6,-5 -1,0 -4,3 -7,8 -2,5 -6,12 -8,19l-209 435 -147 0 -225 -435c-2,-6 -5,-11 -7,-16 -4,-7 -7,-11 -10,-11 -2,0 -4,2 -4,6 0,3 1,11 4,22 2,12 4,20 4,24l0 410 -180 0 0 -586 0 0zm1120 586l0 -586 631 0 0 142 -451 0 0 81 430 0 0 141 -430 0 0 81 451 0 0 141 -631 0zm961 -234l0 93 313 0c34,0 52,-15 52,-44 0,-20 -5,-32 -14,-39 -8,-6 -21,-10 -39,-10l-312 0zm-181 234l0 -586 672 0 0 142 -491 0 0 80 364 0c62,0 109,14 137,42 29,29 44,72 44,130 0,71 -17,122 -51,153 -29,26 -72,39 -129,39l-546 0zm859 0l0 -586 631 0 0 142 -451 0 0 81 430 0 0 141 -430 0 0 81 451 0 0 141 -631 0zm1538 -586l0 586 -181 0 0 -434 -320 0c0,169 -15,286 -44,349 -26,57 -72,85 -137,85l-85 0 0 -152c42,0 67,-18 75,-55 7,-38 10,-164 10,-379l682 0 0 0zm165 586l0 -586 181 0 0 143 260 0c96,0 160,13 191,36 39,29 59,92 59,186 0,95 -20,157 -58,186 -31,24 -95,35 -192,35l-440 0 -1 0zm181 -291l0 139 260 0c22,0 39,-4 49,-13 14,-11 20,-30 20,-56 0,-27 -6,-46 -20,-56 -10,-9 -27,-14 -49,-14l-260 0 0 0zm799 -295l0 207 389 0 0 -207 180 0 0 586 -180 0 0 -227 -389 0 0 227 -180 0 0 -586 180 0zm973 0l307 0 291 586 -210 0 -56 -98 -357 0 -55 98 -211 0 290 -586 1 0zm168 131l-29 0 -96 205 222 0 -97 -205zm1218 -131l0 586 -180 0 0 -164 -285 0c-21,0 -35,6 -45,18 -10,13 -14,26 -14,42l0 104 -180 0 0 -131c0,-36 5,-61 16,-77 10,-13 32,-27 65,-42 -30,-12 -50,-29 -63,-54 -12,-24 -18,-61 -18,-111 0,-67 17,-114 52,-141 28,-20 71,-30 128,-30l524 0 0 0zm-180 152l-290 0c-19,0 -33,4 -42,13 -8,8 -12,24 -12,47 0,22 4,37 13,46 9,8 23,13 41,13l290 0 0 -119 0 0zm901 -152l0 206 94 0 205 -206 247 0 -292 280 329 306 -261 0 -228 -228 -94 0 0 228 -180 0 0 -586 180 0 0 0zm1471 294c0,142 -18,226 -52,254 -38,31 -149,46 -335,46 -137,0 -227,-4 -269,-14 -54,-13 -88,-40 -102,-83 -11,-31 -17,-100 -17,-203 0,-143 18,-228 51,-256 37,-31 149,-46 337,-46 186,0 297,15 334,45 35,28 53,114 53,257l0 0zm-594 0c0,74 8,118 26,130 16,13 77,19 181,19 102,0 163,-6 180,-19 18,-13 27,-56 27,-130 0,-75 -9,-119 -27,-131 -16,-13 -77,-20 -180,-20 -103,0 -164,7 -181,20 -18,12 -26,56 -26,131l0 0zm721 -294l323 0 155 330c1,2 2,15 5,37 2,22 5,33 8,33 3,0 5,-11 8,-33 2,-21 4,-34 6,-37l155 -330 307 0 0 586 -181 0 0 -410c0,-7 2,-15 4,-25 3,-11 5,-18 5,-22 0,-3 -2,-5 -6,-5 -1,0 -4,3 -7,8 -2,5 -6,12 -9,19l-208 435 -148 0 -224 -435c-2,-6 -5,-11 -8,-16 -3,-7 -6,-11 -8,-11 -4,0 -5,2 -5,6 0,3 1,11 4,22 2,12 4,20 4,24l0 410 -180 0 0 -586 0 0zm1140 0l766 0 0 586 -180 0 0 -434 -405 0 0 434 -181 0 0 -586zm1156 0l308 0 291 586 -211 0 -55 -98 -357 0 -56 98 -210 0 290 -586 0 0zm168 131l-29 0 -97 205 223 0 -97 -205zm703 -131l0 207 389 0 0 -207 180 0 0 586 -180 0 0 -227 -389 0 0 227 -180 0 0 -586 180 0zm740 0l180 0 0 404c0,4 -4,16 -11,37 -4,12 -6,19 -6,20l3 5c3,0 8,-5 12,-13 3,-7 5,-13 9,-19l308 -434 296 0 0 586 -181 0 0 -404c0,-4 4,-14 9,-30 6,-16 9,-24 9,-27l-3 -4c-4,0 -7,3 -11,11 -3,7 -7,14 -10,20l-309 434 -295 0 0 -586 0 0zm1660 0l0 586 -180 0 0 -164 -285 0c-20,0 -34,6 -44,18 -10,13 -15,26 -15,42l0 104 -180 0 0 -131c0,-36 6,-61 18,-77 9,-13 30,-27 63,-42 -29,-12 -50,-29 -63,-54 -12,-24 -18,-61 -18,-111 0,-67 18,-114 54,-141 27,-20 69,-30 126,-30l524 0 0 0zm-180 152l-289 0c-20,0 -34,4 -42,13 -9,8 -13,24 -13,47 0,22 4,37 13,46 9,8 23,13 42,13l289 0 0 -119z"/>
 </g>
</svg>
