<svg id="Слой_1" data-name="Слой 1" xmlns="http://www.w3.org/2000/svg" viewBox="0 0 599.45 462"><defs><style>.cls-1{fill:#52505b;}</style></defs><path class="cls-1" d="M61.89,244c1.78-3.95,1.4-7.32.78-10.56a103.45,103.45,0,0,1-1.14-12.52c-.17-2.48.27-5.28,3.39-5.73,3.72-.54,4.3,2.56,4.7,5.08.57,3.59.76,7.25,1.12,10.88.44,4.5,1.85,5.25,6,2.74,9.35-5.7,18.61-11.52,27.85-17.37,9-5.7,17.94-11.49,26.9-17.27,18.25-11.78,36.43-23.66,54.75-35.33,15.61-9.94,31.47-19.53,47.05-29.51,13.34-8.56,26.55-17.29,40.09-25.56,5.7-3.47,5.93-4.9.9-9-9.09-7.36-18-15-27.56-21.75-2.16-1.53-4.16-3.29-6.18-5a2.2,2.2,0,0,1-.8-2.89,3,3,0,0,1,2.83-1.46,7.19,7.19,0,0,1,4.38,1.38q18.75,12,37.44,24.06a32.61,32.61,0,0,0,6.27,3.44c.81.3,1.74.69,2.32-.1.71-1,0-1.84-.8-2.42-4.93-3.44-9.66-7.21-14.9-10.17a128.9,128.9,0,0,1-18.46-13c-.61-.5-1.62-1-1.1-1.9a2,2,0,0,1,2.23-.89A40.71,40.71,0,0,1,265.1,71c11,4.75,20.14,12.22,30.14,18.44,2.73,1.7,4.88,1.73,7.41.15q14.27-8.94,28.56-17.83A12.06,12.06,0,0,1,334.57,70c1.82-.43,4.25-1.58,5.25.84.84,2-.87,3.49-2.67,4.52-8.7,4.92-16.78,10.7-25,16.29-1.79,1.22-5.65,2.64-3.93,4.8,2,2.49,3.87-1.21,5.75-2.23a199.48,199.48,0,0,0,25.19-16.69c3.54-2.68,6.46-6.08,10.62-8,1-.47,2-1.27,3-1.38,2.19-.23,4.88-.85,6,1.77,1,2.31-.41,3.91-2.46,5.42-11.33,8.4-22.54,17-33.79,25.45-3.49,2.64-3.4,3.66.64,6.29,17.65,11.45,35.8,22.16,54,32.76,35.59,20.69,71.49,40.88,106.66,62.22,26.89,16.32,52.9,33.87,79.67,50.36a246.51,246.51,0,0,1,26,18.35c1.27,1,3.11,2.34,1.85,4-1,1.33-2.94.33-4.33-.29-7-3.15-12.85-8-19.36-11.85-14.6-8.69-28.93-17.78-43.32-26.78-21.53-13.47-43.88-25.68-65.87-38.44-24.29-14.11-48.14-28.85-72.13-43.4-11.25-6.83-22.62-13.55-34-20.24-8.45-5-16.3-10.86-24.54-16.16-4.59-3-9.4-5.58-14.18-8.26-1.49-.84-3.68-1.48-4.66.07-1.27,2,1.21,2.66,2.51,3.45,21,12.76,41.43,26.25,62.24,39.22,31.07,19.35,62.24,38.56,93.9,57q34.55,20.18,68.84,40.76c19.86,11.87,39,24.9,60,35,1.6.76,3.91,1.45,3,3.71-1,2.52-3.51,1.31-5.22.91a34.27,34.27,0,0,1-7.14-2.66c-24.82-12.1-49-25.24-73.32-38.28-18.71-10.05-37.44-20.08-56-30.43-14-7.81-27.57-16.31-41.58-24.1-12.42-6.9-24.48-14.34-36.59-21.69s-23.65-15.06-35.44-22.64c-6-3.86-11.74-8.12-18-11.58-7.69-4.26-14.22-9.91-21.28-14.92-3.55-2.52-6.29-3.31-10.31-1-9.49,5.4-17.29,12.79-26,19.12-13.44,9.82-27.29,19.12-40.7,29-18.61,13.64-37.9,26.34-57.63,38.44-13.38,8.2-27.39,15.48-40.8,23.64C112.67,242.59,95,251.6,77.64,261.13c-4.33,2.38-4.77,5-3.47,9,3,9.3,6.23,18.55,7.29,28.32,1.41,13,1.9,26.14,2.07,39.25.29,22.33-.32,44.63-1.36,66.92-.75,16.05-2.09,32.08-3,48.12-.3,5.08.69,5.4,5.92,4.56,19.34-3.11,38.18-8.49,57.78-10.53,17.67-1.84,35.15-5.3,52.81-7.29,16.52-1.87,33.07-3.67,49.72-4.69,20.9-1.28,41.8-2.73,62.75-2.9,26.08-.2,52.11,1,78.15,2.72,19.35,1.3,38.55,3.63,57.71,6.05,17.9,2.25,35.68,5.54,53.49,8.54,18.53,3.12,36.68,7.77,55.14,11.1,8.94,1.61,17.73,3.95,26.59,6a11,11,0,0,1,2.42.77c2.11,1.05,4.91,2,3.78,4.94-1,2.71-3.34,3-6.33,2.4-26.76-5.35-53.64-9.92-80.89-12.56-18.82-1.82-37.59-4.34-56.51-4.85-10.69-.29-21.32-1.15-32-1.7-23.49-1.2-47-.68-70.51-1.51-24.8-.87-49.59.69-74.39.72-29.22,0-58.33,2.65-87.46,4.39-12.33.74-24.68,2-37,3.1-9.27.81-18.4,3.26-27.75,3.07-9.9-.21-19.52,1.74-29.29,2.5a12.79,12.79,0,0,0-2.49.56c-3.33.93-4.4,3.28-4,6.28.43,3.27,3.22,3,5.61,2.89,9.67-.4,19.19-2,28.7-3.61,14-2.37,28.17-2.66,42.35-3.12,11.66-.38,23.27-1.8,34.9-2.72,7.67-.6,15.37-.68,23-1.28,13.62-1.06,27.3-2,41-2,20.33-.07,40.68-.14,61,.77,12.52.57,25,1.33,37.57,1.57,24.95.47,49.62,3.84,74.36,6.36,16.81,1.71,33.48,4.75,50.17,7.41,2.76.44,7.27.2,6.43,4.7-.81,4.35-5,2.93-7.75,2.51-18.84-2.88-37.68-5.67-56.63-7.74-17.82-1.94-35.65-3.93-53.54-5.12-50.11-3.33-100.32-2.18-150.49-1.81-22.93.18-45.74,2.49-68.58,4.11-19.57,1.39-39,4-58.57,6a9.14,9.14,0,0,1-1.27.14c-9-.54-9.34.57-10.51,10.45-1.1,9.26-1.59,18.59-2.29,27.89a14.23,14.23,0,0,1-1.74,5.39c-.77,1.55-1.85,2.73-3.86,2.75-1.11,0-2-.37-2.26-1.45-.38-1.8-1.32-3.88.55-5.25a3.32,3.32,0,0,0,1.53-3c0-9,.08-18.07.1-27.11a41.48,41.48,0,0,0-.25-4.45,1.57,1.57,0,0,0-2-1.53c-1,.18-1.19.93-1.2,1.83-.09,8.35-.16,16.71-.37,25.05,0,1.82.65,5-1.58,5a5.24,5.24,0,0,1-5-5.61c.07-3.78,0-7.57,0-11.36,0-1.76,0-3.52,0-5.28.13-11.77.67-10.3-11.26-8.17-9.35,1.68-18.72,3.59-28.35,3.25a24.92,24.92,0,0,1-4.63-.63,3.22,3.22,0,0,1-2.74-3.61c.15-1.89,1.88-1.8,3.24-1.94,9.75-1,19.34-3.09,29.18-3.65,4-.23,7.88-2,12.05-2,2.47,0,2.8-1.93,2.73-3.82-.1-2.36-1.92-3-3.85-2.83-4.52.46-9,1.16-13.52,1.85-10.26,1.57-20.51,3.2-30.77,4.78-1.06.16-2.43.78-3-.62s.42-2.43,1.42-3.14a12.53,12.53,0,0,1,3.45-1.54c11.35-3.63,23.08-5.89,34.72-8.5,1.66-.37,3.35-.66,5-1.17,5.64-1.81,6.35-2.77,6.3-8.57-.31-40.17-.77-80.34-.88-120.51,0-12.86-.92-25.68-.89-38.52,0-5.12.43-10.24.61-15.36.22-6.18-1.83-7.6-7.51-4.77-6.16,3.07-12.6,5.74-18.24,9.67C23,291.18,15.48,293,9.3,297.15a8.56,8.56,0,0,1-6.2,1.05c-2.45-.45-3-2.21-2.77-4.32s1.73-2.11,3.42-1.45a3.19,3.19,0,0,0,3.48-.94c8-7.62,18.76-11.19,28-17.05,5.9-3.77,11.76-7.6,17.62-11.44a6.69,6.69,0,0,0,1.82-1.69,3.54,3.54,0,0,0,.17-4.2c-1.08-1.34-2.6-.35-3.83.3-9.46,5-17.83,11.43-26.32,17.73C20.73,278,17,281.2,12,282.46c-1.46.36-3.18,1.75-4.22.22-.86-1.28.42-2.95,1.54-3.92A115.53,115.53,0,0,1,23,268.41c8.07-5.08,16.1-10.22,24.31-15.09,5.25-3.11,7.05-7.47,6.65-13.06-.19-2.68-.49-5.46.77-8,.57-1.15,1.45-2.71,3.07-2.37,1.32.28,1.47,1.89,1.57,3.05C59.68,236.39,59.17,240,61.89,244Zm227-134.83c-.82-2.08-2.18-.92-3.33-.41-8.46,3.76-15.71,9.24-23,14.68-9.09,6.83-19.73,11.26-29.17,17.53q-26,17.3-52.2,34.42c-13.12,8.56-26.4,16.92-39.58,25.41-8.35,5.38-16.66,10.82-25,16.25C103,226,88.57,234,75.13,243.31c-1.56,1.09-3.26,2.42-2,4.27,1.34,2,3.26.78,4.81-.21,11.42-7.35,22.77-14.81,34.26-22.07,13.27-8.38,26.77-16.46,39.81-25.12,17.6-11.69,36.08-22.11,53.47-34.08,11.75-8.08,24.14-15.32,36-23.24,5.82-3.88,11.26-8.4,17.53-11.52,9.54-4.74,16.84-12.4,26.31-17.18A7.8,7.8,0,0,0,288.9,109.15ZM64.58,282.28c0-3.38.08-6.76,0-10.13-.05-1.62.69-4.19-1.68-4.36-2.56-.19-3.15,2.22-3.3,4.35a19.64,19.64,0,0,0,0,2c.38,10.5,1,21,1.61,31.49.64,11.86.41,23.78.4,35.67,0,35.53-.18,71.06-.19,106.59,0,4.45.52,8.9.82,13.35.09,1.35.59,2.35,2.29,2.34s2.23-1,2.38-2.32a24.31,24.31,0,0,0,.06-2.83c-.22-8.24-.65-16.48-.64-24.72q0-51.49.33-103c0-3.37.66-6.78.34-10.1C65.7,307.88,64.88,295.1,64.58,282.28Zm.2-28.52c-.15-1.3,0-2.94-2.06-2.89-2.53.06-2.75,2-2.85,3.79-.09,1.52.34,3.32,2.35,3.17C64.6,257.64,64.6,255.53,64.78,253.76Zm1.63,220.82c-.45-1.4.76-4.06-1.34-4s-2,2.84-2,4.64c-.07,1.27-.27,3.22,1.59,3.14C67.11,478.29,66.07,476,66.41,474.58Zm233.23-370a2.32,2.32,0,0,0,2.3-2.73c-.08-1.37-.72-2.32-2.32-2.16a2.57,2.57,0,0,0-2.41,2.77C297.19,103.86,298.14,104.61,299.64,104.61Z" transform="translate(-0.27 -67.94)"/><path class="cls-1" d="M301.3,270.28c-10.8-.48-23.06.46-35.3-.79-4-.41-5.32-1.88-5.48-5.55-.36-8.12,2.21-13.25,12.14-18.12A81.28,81.28,0,0,1,287,240.65c3.31-.91,5.06-2.78,5.3-6a12.6,12.6,0,0,1,2.93-7.49,7.76,7.76,0,0,0,1.65-5.33c0-11.77-.05-23.53,0-35.3,0-3.78-1.43-5.27-5.61-5-16.2,1.06-31.58,4.38-46.38,11.22-10.35,4.79-20.16,10-28.86,17.1C202.28,221,190.24,233.69,181.54,249a121.94,121.94,0,0,0-15.7,72.45,116.89,116.89,0,0,0,11.66,41.32c1.38,2.81,3.12,5.5,3.66,8.63.35,2-.15,4-2.32,4.73-2.4.84-3.68-1-4.57-2.67-12-23-18.3-47.18-16.19-72.88,2.42-29.54,13.7-55.82,33.77-78.63,20.76-23.6,47.33-38.43,78.65-45a134.59,134.59,0,0,1,47.12-1.85c15.23,2.17,29.89,5.7,43.61,12.14,17.48,8.2,33.24,18.71,46.1,32.93a135.63,135.63,0,0,1,23.74,35.91,134.05,134.05,0,0,1,11,39.84c2.54,22.94-2.05,44.91-10.1,66.38a44.14,44.14,0,0,1-5.52,10.5c-1.25,1.73-2.36,4.29-5.21,2.67-2.58-1.47-1.48-4-.54-5.84,2.57-5.13,5-10.31,7.12-15.61,4.88-12,6.78-24.4,7.75-37.19,1.61-21.35-3.26-41.42-12.11-60.69A106.45,106.45,0,0,0,406,229.81c-6.06-6.82-12-13.56-19.27-19.4-5.85-4.7-12.26-8.4-18.7-12a114,114,0,0,0-33.11-12.81c-8.2-1.67-16.51-2.87-24.81-4-5.09-.68-6.24.29-6.26,5.15,0,11.9.18,23.8.3,35.7a7.65,7.65,0,0,0,1.68,4.94,16.38,16.38,0,0,1,3.51,8.18c.51,3.39,2.61,4.67,5.89,5.41,8.15,1.86,15.63,5.06,21.52,11,4.08,4.09,4.77,9,3.9,14.34a3.72,3.72,0,0,1-2.94,3.12,23.17,23.17,0,0,1-6.74.9C321.57,270.26,312.16,270.28,301.3,270.28Zm-1.41-6.65a268.64,268.64,0,0,0,28.34-.52c1.64-.14,3.64.4,4.4-1.62.67-1.82-.18-3.37-1.32-4.87-2.27-3-6.07-3.35-9.06-5.07-13.65-7.86-27.58-7.38-41.71-1.52-4.38,1.82-9.2,3.19-11.88,7.48-2.17,3.47-.43,6.6,3.76,6.15C282.23,262.6,292,264.77,299.89,263.63Zm-.73-28.1c.22,1.55-.28,3.51,2,3.92,1.53.27,2-.89,1.71-2-.49-1.67.17-4.23-2.35-4.59C298.72,232.54,299.4,234.5,299.16,235.53Z" transform="translate(-0.27 -67.94)"/><path class="cls-1" d="M403.4,340.68c0,7,.05,14.07,0,21.1-.06,5.81-1.46,11.28-5.38,15.91-1.83,2.16-1.64,4.56-1.23,6.95,1.2,6.92,2.57,13.82,3.81,20.75a31.63,31.63,0,0,1,.51,5.23c0,1.41.38,3.22-1.8,3.59a3.6,3.6,0,0,1-4.29-2.54c-1.26-3.48-1.19-7.18-1.84-10.77-.75-4.11-1.43-8.25-2.23-12.36-.39-2-1.6-2.84-3.7-1.79-6.54,3.26-13.73,3.44-20.82,3.43-4.08,0-5.32,1.26-5.61,5.06-.39,5.09-1.63,10.14-2.67,15.17-.33,1.6-.51,3.93-3.22,3.38s-3-2.55-2.52-4.79c1-4.91,1.86-9.84,2.87-14.74.72-3.49-.41-4.89-4.4-4.71-6.26.29-12.55.16-18.82,0-3.22-.07-4.29,1.24-4.13,4.15.22,4.37,1.88,8.45,2.52,12.73a31.62,31.62,0,0,1,.49,4.42,2.72,2.72,0,0,1-2.41,2.92c-1.53.26-2.36-.72-2.94-1.89a22.62,22.62,0,0,1-2.22-9c-.62-12.41-.78-12.63-13.83-12.51-4.43.05-8.8-.46-13.2-.78-3.41-.24-5,1.24-5.46,4.27-.87,5.34-1.81,10.67-2.74,16-.33,2-.94,4.09-3.46,3.87-3-.27-2.82-2.87-2.44-4.77,1-5.31,1.14-10.76,2.81-16,1-3.11.42-5.37-2.59-7.7-10.22-8-7.79-22.26,4.85-28.39,4-1.93,5.21-4.59,5.21-8.4,0-2.4-1-3.62-3.61-3.24-6,.86-11.9-.57-17.87-.25-1.87.1-3.46-.52-3.43-2.69s1.47-2.85,3.37-2.93c4.7-.2,9.4-.38,14.1-.46,5.69-.1,11.36.42,17.08.06a17.86,17.86,0,0,1,12.09,3.17c3.15,2.31,4.87,1.38,5-2.52.27-6.61.3-13.24.4-19.87.21-14.24,11.36-25.16,26.44-25.46,11.12-.22,22.25-.13,33.37.11,11.74.24,23.56,11.7,23.91,23.14.23,7.7,0,15.41,0,23.12Zm-79.7,43.19V384c9.69,0,19.39-.08,29.09.05,2.83,0,4.27-.94,4.64-3.55.66-4.55,1.69-9.07,2-13.64.35-6,3.08-11.53,3-17.54,0-2,0-3.79-3-3.81-6,0-11.91-.22-17.86-.39-2.3-.07-4.57-.56-4.27-3.33.28-2.61,2.57-3.08,4.83-2.81a55.08,55.08,0,0,0,8.52,0c9-.33,18-.82,26.91.27,6.14.75,10.61,3.78,12.29,9.74,1.14,4,2.19,8.11,3.24,12.18.3,1.16.26,2.77,2,2.59s1.32-1.82,1.49-2.95a13.73,13.73,0,0,0,.05-2c0-12.44-.55-24.91.12-37.33s-10.89-20.7-21.92-20.55c-8.84.12-17.68,0-26.52.08-11.84.14-21,8.32-21.41,19.54-.37,10.13-.13,20.28-.22,30.42,0,2.77,1.28,3.88,4.16,3.84,5.27-.09,10.55,0,15.82,0a59.59,59.59,0,0,1,6.82.4c1.45.19,2.73,1,2.75,2.63,0,1.44-1.13,2.12-2.3,2.65-2.15,1-4.48.77-6.74.77-15.83,0-31.66,0-47.48,0A25.46,25.46,0,0,0,292,362c-6.29,1.91-9.25,5.94-8.48,11.8a12,12,0,0,0,11.9,10.11C304.87,383.9,314.28,383.87,323.7,383.87Zm47.6-.11a56.59,56.59,0,0,0,6,0c7.93-.84,12-5,10.87-11.36-1.07-6.12-2.24-12.23-3.56-18.31-1-4.76-4.23-7.35-9.37-8.2-3.3-.55-5.74.1-6.08,3.74-.86,9.28-3.91,18.21-4.68,27.51C363.89,383.94,363.78,383.93,371.3,383.76Zm-65.06-29c2-.62,5.84,1.54,6.57-1.79s-2.61-5.29-5.55-6.77a10.08,10.08,0,0,0-2-.69c-1.82-.47-4-.9-5.09.73a8.16,8.16,0,0,0-1.22,6.92c.69,2.19,3,1.46,4.77,1.6C304.44,354.8,305.15,354.75,306.24,354.75Z" transform="translate(-0.27 -67.94)"/><path class="cls-1" d="M258.94,359.38c16.74-.53,13.87,2.13,14,13.43,0,1.22,0,2.43,0,3.65.11,3.66-1.76,5.41-5.59,5.72-9,.73-9,.79-6.58,9.15,1.68,5.87,3.36,11.73,5.14,17.57,1,3.38-.7,4.84-3.88,5.32-5.49.83-7.81-.52-9.75-5.45a144.89,144.89,0,0,1-5.8-19.89c-1.4-5.85-2.47-6.69-8.63-6.71-4.13,0-8.26,0-12.4.06-3.28,0-5.16,1.43-6,4.6-1.77,7-3.84,13.84-5.81,20.75-1.76,6.14-5.41,8.24-11.78,6.48-3.82-1.05-3.18-4.18-2.54-6.73,1.13-4.46,2.71-8.81,4.11-13.2.17-.52.4-1,.58-1.53,3.08-8.83,3.1-9-6.5-10.5-3.37-.54-4.66-2.07-4.59-5.14.09-4.19.17-8.39,0-12.58-.14-3.92,1.81-5.29,5.73-5.12,4.27.18,8.56,0,12.83.15,3.36.12,4.39-1.35,4.58-4.37.28-4.38-2.1-8.1-2.78-12.23-.88-5.34-2.2-10.38,4.94-13.28,2.84-1.15,1.38-4.4.72-6.63a35.61,35.61,0,0,1-.33-20,32.3,32.3,0,0,1,8.4-14.38c4-4,6-4,9.84,0,9.19,9.83,12.15,21.2,8.7,33.92-1,3.81-2,7,3.34,8.67,2.48.77,2.52,3.42,2.13,5.65-.8,4.66-1.71,9.31-2.55,14-.25,1.33-.4,2.67-.62,4-.56,3.43.69,5.11,4.62,4.68A55,55,0,0,1,258.94,359.38Zm-26,17.45v-.05q14.74,0,29.49,0c1.52,0,3.15.24,3.86-1.7,2-5.48-1-9.83-7-9.81-2.27,0-4.54.27-6.8.46a70.86,70.86,0,0,1-14.92-.05c-12.2-1.52-24.41-.12-36.62-.17a2.62,2.62,0,0,0-2.49,1.27c-2.2,3.79,1.7,10.05,6.29,10.06Zm-3.35-17.48c4.93-.14,9.5.45,10.88-4.32a138,138,0,0,0,2.8-14.28c.42-2.4-.73-3.41-3.34-3.4-5,0-9.95-.13-14.91-.39-3.57-.19-5.12,1.13-4.36,4.49.93,4.08,2.36,8.1,2.83,12.22C224,358.05,225.7,360.26,229.61,359.35Zm5-36.63a20.67,20.67,0,0,0,0,2.84c.13,1-.21,2.39,1.38,2.57,1.17.13,1.66-.88,2.12-1.72a9.78,9.78,0,0,0,.9-1.84c3-10,1.91-19.43-4.41-28.16-1.67-2.31-2.74-2.42-4.74-.17-8.36,9.39-7.44,19.59-3.39,30.16.37,1,1,1.77,2.2,1.51s1.15-1.41,1.15-2.35c0-4.59.16-9.2-.61-13.77-.67-4,.2-7.8,1.18-11.61.28-1.06.9-2.24,2.29-1.95,1.09.22,1.05,1.39,1.21,2.36C235.05,308,235.67,315.31,234.57,322.72ZM251,381.62c-.27.31-.64.56-.75.89a3.91,3.91,0,0,0-.19,1.59c1,8.81,4.47,16.87,8.18,24.87.34.74,1,1.52,1.92,1.11.4-.17.57-1.14.56-1.75a11.61,11.61,0,0,0-.47-2.36c-1.62-7.24-4.69-14.05-7.08-21.07C252.74,383.7,252.67,382.22,251,381.62Zm-36.29,4.43c-.39-1.68.55-3.55-1.54-3.75-1.89-.17-1.91,1.59-2.29,2.87-.76,2.59-1.67,5.14-2.35,7.74q-1.78,6.85-3.32,13.76c-.19.82-.55,2,.73,2.44s1.84-.56,2.11-1.45C210.33,400.33,212.57,393,214.69,386.05Z" transform="translate(-0.27 -67.94)"/><path class="cls-1" d="M250.1,372.58c-13.49,0-27,0-40.46,0-1.46,0-3.71.39-3.95-1.47-.32-2.44,2.39-1.69,3.77-2.25,2.32-.93,4.87-.47,7.18-.2,10.74,1.24,21.54-1.42,32.25.61,2.77.52,5.56,1.16,8.45.83,1-.12,2.15-.2,2.22,1.16s-1,1.85-2.22,1.93c-2.41.16-4.82.29-7.24.43Z" transform="translate(-0.27 -67.94)"/></svg>